# xmcd CD database file
# Copyright (C) 1993-1998 Ti Kan
# 
# Track frame offsets:
#     182
#     24447
#     51012
#     95910
#     114482
#     135200
#     159645
#     176397
#     209102
#     227985
#     255085
#     273370
#     295040
#     310690
# 
# Disc length: 4492 seconds
# 
# Revision: 1
# Processed by: cddbd v1.4b41PL1 Copyright (c) Steve Scherf et al.
# Submitted via: DiscPlay 4.0.3
# 
DISCID=bb118a0e
DTITLE=Various Artist - Gospel's Greatest Hits [CDOne)
DYEAR=1900
DGENRE=
TTITLE0=So Good/The Williams Brothers
TTITLE1=Jesus Is Lord/Andrae Crouch
TTITLE2=Goin' Up Yonder/Walter Hawkins aand The Love Center Choir
TTITLE3=Tomorrow/The Winans
TTITLE4=Cross that River/L.A. Mass Choir
TTITLE5=Two Wings/The Christianaires
TTITLE6=Soon and Very Soon/Andrae Crouch and The Disciples
TTITLE7=Be Grateful/Walter Hawkins
TTITLE8=I'm Ready To Serve The Lord/Donald Malloy
TTITLE9=My Soul Has Been Anchored/Douglas Miller
TTITLE10=Uphold Me/The Winans
TTITLE11=O' The Blood/The New Jersey Mass Choir
TTITLE12=Wonderful/Beau Williams
TTITLE13=(Ain't No Devil In Hell Ganna Walk On)The Jesus In Me/Danniebelle H
TTITLE13=all
EXTD=
EXTT0=
EXTT1=
EXTT2=
EXTT3=
EXTT4=
EXTT5=
EXTT6=
EXTT7=
EXTT8=
EXTT9=
EXTT10=
EXTT11=
EXTT12=
EXTT13=
PLAYORDER=
